<svg width="39" height="56" viewBox="0 0 39 56" fill="none" xmlns="http://www.w3.org/2000/svg">
<path d="M19.5 38.3385C15.4245 38.3385 11.605 37.3109 8.32085 35.5273C8.11356 35.932 8 36.3517 8 36.783C8 38.9713 11.0498 41.0747 15.4155 41.8957C15.9022 41.9873 16.2861 42.3353 16.3943 42.7833L19.5054 55.5933L22.5012 42.81C22.6075 42.3554 22.9951 42.0039 23.489 41.914C27.9123 41.103 31 38.993 31 36.7847C31 36.355 30.8865 35.9354 30.6792 35.5307C27.3968 37.3143 23.5773 38.3418 19.5 38.3418V38.3385Z" fill="#010101"/>
<path d="M19.5 0.86792C8.74775 0.86792 0 8.84664 0 18.6537C0 24.4852 3.09279 29.6708 7.86201 32.9169C8.20805 33.1524 8.56487 33.3732 8.92705 33.5874C9.2946 33.8049 9.67108 34.0126 10.0548 34.2072C12.8553 35.6267 16.0737 36.4394 19.5 36.4394C22.9263 36.4394 26.1446 35.6267 28.9452 34.2072C29.3289 34.0126 29.7054 33.8049 30.073 33.5874C30.4351 33.3732 30.7937 33.1524 31.1379 32.9169C35.9072 29.6708 39 24.4868 39 18.6537C39 8.84664 30.2523 0.86792 19.5 0.86792ZM26.1607 21.0756C27.2222 21.0756 28.0828 21.8605 28.0828 22.8286C28.0828 23.7967 27.2222 24.5817 26.1607 24.5817C25.0993 24.5817 24.2387 23.7967 24.2387 22.8286C24.2387 21.8605 25.0993 21.0756 26.1607 21.0756ZM19.5 19.9537C20.5614 19.9537 21.422 20.7387 21.422 21.7068C21.422 22.6749 20.5614 23.4598 19.5 23.4598C18.4386 23.4598 17.578 22.6749 17.578 21.7068C17.578 20.7387 18.4386 19.9537 19.5 19.9537ZM19.5 26.8221C20.5614 26.8221 21.422 27.607 21.422 28.5751C21.422 28.948 21.2929 29.2914 21.076 29.576C20.7281 30.0306 20.1526 30.3298 19.5 30.3298C18.8474 30.3298 18.2718 30.0306 17.924 29.576C17.7071 29.2914 17.578 28.948 17.578 28.5751C17.578 27.607 18.4386 26.8221 19.5 26.8221ZM12.832 21.0772C13.8934 21.0772 14.7541 21.8622 14.7541 22.8303C14.7541 23.7984 13.8934 24.5833 12.832 24.5833C11.7706 24.5833 10.91 23.7984 10.91 22.8303C10.91 21.8622 11.7706 21.0772 12.832 21.0772ZM6.1641 27.6005C5.10268 27.6005 4.24208 26.8155 4.24208 25.8474C4.24208 24.8793 5.10268 24.0944 6.1641 24.0944C7.22552 24.0944 8.08613 24.8793 8.08613 25.8474C8.08613 26.8155 7.22552 27.6005 6.1641 27.6005ZM11.8692 30.7452C11.6666 30.4672 11.5465 30.1336 11.5465 29.7755C11.5465 28.8074 12.4071 28.0224 13.4685 28.0224C14.53 28.0224 15.3906 28.8074 15.3906 29.7755C15.3906 29.8033 15.3834 29.8294 15.3816 29.8572C15.3547 30.3969 15.0607 30.8711 14.616 31.1753C14.2951 31.3944 13.9006 31.5302 13.4685 31.5302C13.404 31.5302 13.3412 31.5187 13.2785 31.5122C12.6904 31.4582 12.1794 31.172 11.8674 30.7452H11.8692ZM26.159 31.5285C25.171 31.5285 24.366 30.8466 24.2584 29.9717C24.2495 29.9063 24.2369 29.8425 24.2369 29.7755C24.2369 28.8074 25.0975 28.0224 26.159 28.0224C27.2204 28.0224 28.081 28.8074 28.081 29.7755C28.081 30.2154 27.8963 30.6127 27.6023 30.9218C27.2491 31.2914 26.7363 31.5302 26.1572 31.5302L26.159 31.5285ZM32.8502 27.6005C31.7888 27.6005 30.9282 26.8155 30.9282 25.8474C30.9282 24.8793 31.7888 24.0944 32.8502 24.0944C33.9116 24.0944 34.7722 24.8793 34.7722 25.8474C34.7722 26.8155 33.9116 27.6005 32.8502 27.6005Z" fill="#010101"/>
</svg>
