<svg width="62" height="64" viewBox="0 0 62 64" fill="none" xmlns="http://www.w3.org/2000/svg">
<path d="M30.8295 43.0175C31.0992 41.4404 31.966 40.0635 33.2722 39.1393C35.3569 37.6639 38.0643 37.7182 40.0693 39.0613C42.4052 35.9122 43.786 31.978 43.9879 27.7183L18.9348 45.4492C23.0196 46.6736 27.1891 46.6803 30.9363 45.5238C30.7277 44.7149 30.6836 43.8654 30.8278 43.0175H30.8295Z" fill="#010101"/>
<path d="M39.0923 11.5949C35.3858 6.36176 30.134 2.70229 24.3054 1.28972C22.5887 0.874255 20.8822 0.669067 19.2147 0.669067C15.2793 0.669067 11.5592 1.81371 8.41254 4.04025C3.93254 7.21134 1.1353 12.2088 0.538195 18.1117C-0.0656967 24.0774 1.6425 30.245 5.34897 35.4781C8.16827 39.4581 11.8917 42.5393 16.1512 44.4216L22.3818 40.0126L43.9421 24.7524C43.5808 20.111 41.9116 15.5766 39.0923 11.5966V11.5949Z" fill="#010101"/>
<path d="M51.9097 56.8974L40.1982 42.6784L39.6232 41.9814C39.5587 41.8898 39.4875 41.8067 39.4162 41.7236C39.1414 41.4031 38.8191 41.1437 38.4663 40.947C37.9336 40.6485 37.3348 40.4874 36.7275 40.4874C36.0202 40.4874 35.306 40.6977 34.6869 41.1369C33.915 41.6829 33.401 42.4969 33.2416 43.4296C33.172 43.8366 33.1771 44.2452 33.2467 44.6404C33.3179 45.0456 33.457 45.4391 33.6691 45.8003C33.7233 45.8935 33.7793 45.9834 33.8421 46.0716L33.8981 46.1581L34.3035 46.8466L43.6485 62.7172C43.9352 63.2022 44.3949 63.5346 44.9462 63.6533C45.4975 63.772 46.0539 63.6567 46.5136 63.3311L51.5212 59.787C51.9775 59.4631 52.2693 58.9798 52.3439 58.4253C52.4186 57.8707 52.2625 57.3281 51.908 56.8957L51.9097 56.8974Z" fill="#010101"/>
<path d="M56.7562 9.4209C55.7435 9.4209 54.7223 9.72274 53.8351 10.3502C52.7308 11.1319 51.9963 12.2969 51.7673 13.6315C51.5383 14.9661 51.8436 16.3074 52.6273 17.4131C54.2422 19.6939 57.4127 20.2348 59.6925 18.6204C61.9741 17.0061 62.5152 13.8384 60.9003 11.5576C59.913 10.1653 58.3473 9.4209 56.7562 9.4209Z" fill="#010101"/>
</svg>
