<svg width="57" height="58" viewBox="0 0 57 58" fill="none" xmlns="http://www.w3.org/2000/svg">
<path d="M29.7654 14.5572C29.6754 14.7589 29.5821 14.9591 29.4871 15.1575C29.3769 15.3898 29.2632 15.6221 29.1479 15.851C29.0478 16.0477 28.9477 16.2428 28.8442 16.4378C28.7221 16.6667 28.5983 16.8922 28.4693 17.1178C28.3608 17.3094 28.2522 17.4993 28.1403 17.6876C28.0062 17.9114 27.8689 18.1335 27.7298 18.3557C27.6144 18.5405 27.4974 18.7237 27.3769 18.9068C27.231 19.1272 27.0817 19.346 26.9291 19.5631C26.8052 19.7411 26.6831 19.9175 26.5542 20.0921C26.3964 20.3092 26.2319 20.5229 26.0674 20.7382C25.9367 20.9078 25.8078 21.0774 25.6755 21.2436C25.5025 21.4589 25.3227 21.6709 25.1446 21.8812C25.0106 22.0406 24.8782 22.2 24.7391 22.356C24.7001 22.4001 24.6645 22.4459 24.6238 22.49L29.3701 27.1957L48.3146 8.40999C43.9958 4.22653 38.4912 1.52687 32.5744 0.675599C32.5235 0.668816 32.471 0.658639 32.4201 0.651855C32.4387 1.09106 32.4489 1.52858 32.4489 1.95761C32.4489 2.15771 32.4388 2.3578 32.4354 2.5579C32.4303 2.84448 32.4269 3.13278 32.4133 3.41936C32.4065 3.58215 32.3896 3.74155 32.3811 3.90435C32.3607 4.22654 32.3421 4.55043 32.3115 4.87093C32.2929 5.06424 32.2674 5.25587 32.2454 5.44749C32.2131 5.73577 32.1826 6.02235 32.1419 6.30893C32.1131 6.51243 32.0774 6.71594 32.0435 6.91943C31.9994 7.19075 31.957 7.46206 31.9061 7.73169C31.8671 7.94027 31.8196 8.14716 31.7772 8.35574C31.7229 8.61689 31.6686 8.87803 31.6058 9.13748C31.555 9.34776 31.499 9.55633 31.4447 9.76491C31.3785 10.0193 31.3124 10.2719 31.2394 10.5246C31.1784 10.7349 31.1139 10.9435 31.0477 11.1521C30.9714 11.3996 30.8934 11.6472 30.8103 11.8931C30.739 12.1017 30.6644 12.3069 30.5897 12.5138C30.5015 12.7563 30.4117 12.997 30.3184 13.2378C30.2369 13.443 30.1538 13.6465 30.069 13.85C29.9706 14.0874 29.8688 14.3231 29.7637 14.5572H29.7654Z" fill="#010101"/>
<path d="M35.5992 33.3736C35.6687 33.3108 35.74 33.2498 35.8095 33.1887C37.2582 31.9254 38.8324 30.7926 40.4846 29.8226C40.6932 29.7005 40.9036 29.5801 41.1139 29.4631C41.9587 28.9934 42.834 28.5593 43.7195 28.1727C43.9434 28.076 44.1656 27.981 44.3912 27.8878C44.8391 27.7046 45.2987 27.5283 45.7601 27.3638C46.4505 27.1179 47.1596 26.8957 47.8704 26.699C48.3403 26.5701 48.8254 26.4481 49.3106 26.3395C49.7957 26.231 50.2893 26.1326 50.7796 26.0479C51.2698 25.9631 51.7719 25.8885 52.2707 25.8274C52.766 25.7664 53.2749 25.7155 53.7838 25.6782C54.2452 25.6443 54.7134 25.6222 55.1815 25.6087C55.2375 25.6087 55.2918 25.6036 55.3478 25.6036C55.7905 25.5934 56.2316 25.5934 56.6726 25.6036C56.7167 25.6036 56.7608 25.6036 56.8049 25.6036C56.1468 19.8939 53.7516 14.4827 49.9518 10.1365L31.0564 28.873L35.5975 33.377L35.5992 33.3736Z" fill="#010101"/>
<path d="M22.9768 24.2012C22.9022 24.2741 22.8258 24.3453 22.7512 24.4165C22.3865 24.7608 22.0048 25.1016 21.6215 25.4306C21.2381 25.7579 20.8411 26.0801 20.4425 26.3887C20.0405 26.699 19.6282 27.0009 19.216 27.2892C18.8021 27.5774 18.3747 27.8606 17.9438 28.1303C17.7284 28.2659 17.5113 28.3982 17.2924 28.5271C16.8548 28.7865 16.4052 29.0375 15.9574 29.2732C15.5028 29.5123 15.0397 29.7412 14.5817 29.9549C13.4146 30.4976 12.2034 30.969 10.9821 31.3607C10.485 31.5184 9.98126 31.6659 9.48254 31.7982C8.72428 31.9983 7.94905 32.1713 7.17892 32.312C6.91938 32.3595 6.65987 32.4036 6.39693 32.4443C4.81426 32.6919 3.19255 32.8174 1.57934 32.8174C1.17901 32.8174 0.766808 32.8072 0.352905 32.7902C0.325763 32.7902 0.298626 32.7902 0.271484 32.7885C1.08572 38.6813 3.74387 44.1841 7.87103 48.5134L27.6841 28.8679L22.9768 24.1995V24.2012Z" fill="#010101"/>
<path d="M29.5381 40.7059C29.7993 40.2684 30.0724 39.8326 30.3523 39.4104C30.773 38.7779 31.2225 38.1521 31.689 37.5501C32.3115 36.7497 32.9782 35.9714 33.672 35.2388C33.7415 35.1659 33.8111 35.0929 33.8823 35.02L29.3684 30.5432L9.5791 50.1666C13.9556 54.0533 19.4331 56.502 25.2277 57.1685C25.2226 56.9277 25.2192 56.6903 25.2192 56.4546C25.2192 54.8351 25.3464 53.2106 25.5958 51.625C25.6772 51.1061 25.7739 50.5804 25.8825 50.0649C25.9893 49.5545 26.1132 49.039 26.2472 48.5319C26.3795 48.0283 26.5288 47.5229 26.6865 47.0295C26.8443 46.5377 27.0173 46.0425 27.1988 45.5592C27.2904 45.3184 27.3837 45.076 27.4821 44.8385C27.7722 44.1246 28.0928 43.4158 28.4354 42.729C28.7747 42.0456 29.1462 41.3656 29.5381 40.7076V40.7059Z" fill="#010101"/>
<path d="M56.9778 27.9826C56.8065 27.9775 56.6335 27.9741 56.4605 27.9724C56.3977 27.9724 56.3349 27.969 56.2722 27.969C56.0415 27.969 55.8108 27.969 55.5801 27.9741C55.5546 27.9741 55.5292 27.9741 55.5037 27.9741C55.268 27.9792 55.0321 27.9876 54.798 27.9978C54.7743 27.9978 54.7506 27.9978 54.7285 27.9995C54.4707 28.0114 54.2145 28.0266 53.9601 28.0453C53.4902 28.0792 53.0203 28.1267 52.564 28.1826C52.1026 28.2386 51.6395 28.3081 51.1883 28.3861C50.7353 28.4642 50.2807 28.5557 49.8329 28.6541C49.3851 28.7541 48.9373 28.8661 48.503 28.9865C47.8482 29.1662 47.1934 29.3731 46.5573 29.5986C46.1315 29.7495 45.7057 29.9123 45.2935 30.0819C45.0866 30.1667 44.8779 30.2549 44.6727 30.3447C43.8568 30.7026 43.0476 31.1028 42.269 31.5352C42.0739 31.6437 41.8805 31.7539 41.6871 31.8676C40.1621 32.7629 38.7084 33.8092 37.37 34.9759C37.3429 34.9996 37.3157 35.0251 37.2886 35.0488L49.6276 47.2855L49.9567 47.611C54.5029 42.4169 56.9931 35.8085 56.9931 28.8677C56.9931 28.5778 56.988 28.281 56.9778 27.9826Z" fill="#010101"/>
<path d="M35.3973 36.8702C34.7561 37.5468 34.1387 38.2658 33.5653 39.0051C33.1344 39.5596 32.7205 40.1379 32.3321 40.7213C32.0725 41.1113 31.8198 41.5132 31.5789 41.9168C31.2176 42.5239 30.8749 43.153 30.5611 43.7821C30.2456 44.4147 29.9504 45.0709 29.6824 45.7289C29.5925 45.9493 29.506 46.1715 29.4212 46.3936C29.2532 46.8379 29.0938 47.294 28.9479 47.7485C28.802 48.203 28.6663 48.6693 28.5425 49.134C28.4186 49.602 28.305 50.0768 28.2066 50.5482C28.1065 51.0247 28.0166 51.5097 27.942 51.9879C27.7113 53.4531 27.5942 54.9538 27.5942 56.4495C27.5942 56.7395 27.601 57.0362 27.6095 57.3364C27.9097 57.3466 28.2049 57.3517 28.495 57.3517C35.9826 57.3517 42.9765 54.5129 48.3165 49.3307L35.5687 36.6887C35.511 36.7481 35.4516 36.8074 35.3939 36.8685L35.3973 36.8702Z" fill="#010101"/>
<path d="M1.57929 30.4449C3.07036 30.4449 4.56652 30.3279 6.02875 30.099C6.26963 30.0617 6.5105 30.021 6.74969 29.9769C7.46045 29.8463 8.17461 29.6869 8.87519 29.5021C9.33489 29.3817 9.79971 29.246 10.2577 29.0985C11.3841 28.739 12.5019 28.3015 13.5774 27.8029C13.9998 27.6062 14.4273 27.3942 14.8462 27.1738C15.2601 26.955 15.6741 26.7227 16.0778 26.4853C16.2796 26.3666 16.4815 26.2428 16.68 26.119C17.0769 25.8714 17.4722 25.6103 17.8538 25.3423C18.2355 25.0761 18.6172 24.7963 18.987 24.5114C19.3568 24.2265 19.7232 23.9281 20.076 23.6262C20.4306 23.3227 20.7817 23.0073 21.1193 22.6885C21.1752 22.6359 21.2312 22.5799 21.2872 22.5257L7.86758 9.21729C2.78539 14.5369 0 21.4692 0 28.8678C0 29.3715 0.0135706 29.8836 0.0424081 30.4008C0.128921 30.4059 0.215437 30.411 0.300253 30.4161C0.73112 30.4347 1.1603 30.4449 1.57759 30.4449H1.57929Z" fill="#010101"/>
<path d="M22.9343 20.8146C22.9529 20.7926 22.975 20.7722 22.9936 20.7502C23.1191 20.6078 23.2379 20.4619 23.3601 20.3178C23.5263 20.1211 23.6942 19.9244 23.8554 19.7226C23.9775 19.57 24.0929 19.4139 24.2116 19.2596C24.3643 19.0612 24.5169 18.8628 24.6645 18.661C24.7816 18.5016 24.8918 18.3371 25.0055 18.176C25.1463 17.9742 25.2854 17.7724 25.4211 17.5672C25.5313 17.4011 25.6365 17.2315 25.7417 17.0619C25.8706 16.8567 25.9995 16.6515 26.1216 16.4429C26.2234 16.27 26.3218 16.097 26.4202 15.9224C26.5389 15.7121 26.6543 15.5035 26.7679 15.2898C26.8629 15.1118 26.9529 14.9337 27.0445 14.754C27.1513 14.5403 27.2582 14.3266 27.36 14.1096C27.4465 13.9281 27.5296 13.745 27.611 13.5618C27.7077 13.3431 27.8027 13.1243 27.8943 12.9039C27.9724 12.719 28.047 12.5325 28.1199 12.3443C28.2064 12.1221 28.2912 11.8983 28.3727 11.6728C28.4405 11.4845 28.5084 11.2963 28.5729 11.1064C28.6492 10.8791 28.7221 10.6502 28.7933 10.4196C28.8527 10.2296 28.9121 10.0397 28.9664 9.8481C29.0342 9.61409 29.0953 9.37839 29.1564 9.14438C29.2056 8.95445 29.2564 8.76283 29.3022 8.57121C29.3599 8.33041 29.4108 8.08791 29.4617 7.84541C29.5007 7.65549 29.5431 7.46556 29.5788 7.27564C29.6263 7.02636 29.6653 6.77537 29.706 6.5227C29.7365 6.33617 29.7688 6.15135 29.7942 5.96481C29.8315 5.70027 29.8604 5.43402 29.8892 5.16779C29.9096 4.99312 29.9316 4.81846 29.9486 4.6421C29.9757 4.34534 29.9944 4.04689 30.013 3.74843C30.0215 3.6009 30.0368 3.45507 30.0436 3.30754C30.0554 3.043 30.0571 2.77675 30.0622 2.51221C30.0656 2.32907 30.0758 2.14592 30.0758 1.96108C30.0758 1.59141 30.0656 1.21327 30.0504 0.835113C30.047 0.758804 30.0453 0.682478 30.0402 0.606168C30.0368 0.546816 30.0317 0.485779 30.0283 0.426427C29.9757 0.423036 29.9248 0.423029 29.8722 0.419638C29.4091 0.397593 28.9494 0.384033 28.4982 0.384033C21.472 0.384033 14.8004 2.92769 9.5791 7.5707L22.8834 20.7655L22.9343 20.8163V20.8146Z" fill="#010101"/>
</svg>
