<svg width="71" height="65" viewBox="0 0 71 65" fill="none" xmlns="http://www.w3.org/2000/svg">
<path d="M4.12542 22.885C3.11781 23.6955 2.50033 24.9012 2.43247 26.1934C2.36293 27.4839 2.84809 28.7489 3.76241 29.6629C11.7402 37.9247 20.8105 45.0164 30.7357 50.7532L43.6074 58.1943C47.7464 60.587 52.4605 61.9368 57.2391 62.0996L65.0337 62.3624C65.7665 62.3896 66.4382 62.2878 67.0337 62.0708C69.076 61.3195 70.3975 59.4389 70.3975 57.2802V55.2334C70.3975 55.1808 70.3975 55.1283 70.3958 55.074C70.2719 55.1062 70.1464 55.13 70.0192 55.1469C69.892 55.1639 69.7613 55.1707 69.6307 55.1707H54.452C51.8736 55.1707 49.3325 54.4822 47.1069 53.1816L31.7806 44.2194C22.9563 39.0592 14.8174 32.7798 7.58931 25.5541L4.56477 22.5322L4.12542 22.8867V22.885Z" fill="#010101"/>
<path d="M64.379 46.7003L60.8795 45.6184C56.7642 44.3466 53.3512 41.5689 51.2698 37.7958L48.8729 33.4513C48.8559 33.4581 48.8423 33.4699 48.8271 33.4767L40.2165 36.9666C40.0639 37.0276 39.9061 37.0582 39.7517 37.0582C39.2632 37.0582 38.7984 36.7665 38.6033 36.2849C38.3472 35.6507 38.6525 34.93 39.2852 34.6722L47.6702 31.2739L46.7881 29.6748C46.4997 29.1525 46.2453 28.6166 46.0163 28.0706L37.6822 31.0195C37.5448 31.0687 37.4057 31.0908 37.2683 31.0908C36.7577 31.0908 36.281 30.7737 36.1012 30.2649C35.8722 29.6205 36.2115 28.9134 36.8544 28.6845L45.1884 25.7355C45.2037 25.7304 45.2173 25.7288 45.2325 25.7254C45.1036 25.2132 44.9968 24.6926 44.917 24.1669L42.4981 10.7365C42.2894 9.57487 41.5244 8.58792 40.4523 8.09615L24.3508 0.700906C22.7393 -0.0401444 20.8479 0.488941 19.8538 1.95748L6.72595 21.335L9.26535 23.8736C16.3492 30.9568 24.327 37.1108 32.9766 42.1675L48.3029 51.1296C50.1655 52.2183 52.291 52.7949 54.4487 52.7949H69.6274C69.8615 52.7949 70.0786 52.6745 70.2076 52.471C70.25 52.4049 70.2788 52.3353 70.2975 52.2641C69.2932 49.6102 67.0965 47.5397 64.3773 46.6986L64.379 46.7003Z" fill="#010101"/>
<path d="M22.3796 62.3149H1.23833C0.554707 62.3149 0 62.8695 0 63.5529C0 64.2363 0.554707 64.7908 1.23833 64.7908H22.3796C23.0633 64.7908 23.6179 64.2363 23.6179 63.5529C23.6179 62.8695 23.0633 62.3149 22.3796 62.3149Z" fill="#010101"/>
<path d="M1.23833 57.3564H14.9243C15.6079 57.3564 16.1626 56.8019 16.1626 56.1185C16.1626 55.4351 15.6079 54.8806 14.9243 54.8806H1.23833C0.554707 54.8806 0 55.4351 0 56.1185C0 56.8019 0.554707 57.3564 1.23833 57.3564Z" fill="#010101"/>
<path d="M1.23833 49.3847H8.0813C8.76492 49.3847 9.31962 48.8302 9.31962 48.1469C9.31962 47.4635 8.76492 46.9089 8.0813 46.9089H1.23833C0.554707 46.9089 0 47.4635 0 48.1469C0 48.8302 0.554707 49.3847 1.23833 49.3847Z" fill="#010101"/>
</svg>
