<svg width="60" height="60" viewBox="0 0 60 60" fill="none" xmlns="http://www.w3.org/2000/svg">
<path d="M22.8814 17.5496H36.6911L41.6495 12.8337L43.1202 11.4347L42.5978 9.04538L41.1661 2.48105C37.675 1.0973 33.9855 0.395264 30.1908 0.395264C26.6438 0.395264 23.1816 1.00912 19.8907 2.22329L18.4404 9.35569L18.0927 11.065L22.8814 17.5479V17.5496Z" fill="#010101"/>
<path d="M12.7135 32.9319L16.7558 31.8975L20.9644 18.9503L16.4861 12.8896L16.2503 12.5708L5.71106 13.1949C2.52706 17.7683 0.710314 23.093 0.43042 28.6653L0.903701 29.0096L7.97733 34.1427L12.7118 32.9319H12.7135Z" fill="#010101"/>
<path d="M17.1443 3.80881L17.2377 3.34924C13.5736 5.11793 10.3166 7.61579 7.65002 10.7021L12.8492 10.3935L15.8432 10.2154L17.1461 3.80711L17.1443 3.80881Z" fill="#010101"/>
<path d="M38.5265 19.0809L42.6841 31.8721L51.3626 33.7679L52.7875 32.7301L59.873 27.5682C59.4489 22.7031 57.8289 18.0109 55.1623 13.9258L51.0487 13.5815L44.8555 13.0626L38.5265 19.0809Z" fill="#010101"/>
<path d="M53.3083 11.3872C50.7163 8.19914 47.5086 5.59104 43.8649 3.70874L45.3967 10.7241L50.2142 11.1277L53.31 11.3872H53.3083Z" fill="#010101"/>
<path d="M1.91637 32.6776L0.425293 31.5957C0.625459 35.8521 1.73148 39.9948 3.66529 43.7645L6.1759 36.332L6.32856 35.8792L1.91637 32.6776Z" fill="#010101"/>
<path d="M59.9885 30.4222L53.0302 35.4926L56.1174 44.877C58.6195 40.4798 59.9495 35.5333 59.9885 30.4222Z" fill="#010101"/>
<path d="M30.9117 42.2366V51.0376L40.9472 57.9716C46.3314 55.8841 51.0963 52.1789 54.4669 47.4596L50.7146 36.0572L42.0329 34.1597L30.9117 42.2366Z" fill="#010101"/>
<path d="M17.4378 34.1749L8.6525 36.4218L5.25305 46.4896C8.65079 51.6685 13.6295 55.7078 19.375 57.9496L28.5369 51.0682V42.2366L17.4378 34.1749Z" fill="#010101"/>
<path d="M30.1908 59.9726C32.8914 59.9726 35.5495 59.6148 38.1211 58.906L29.7532 53.1234L22.1095 58.8636C24.7269 59.5995 27.436 59.9726 30.1908 59.9726Z" fill="#010101"/>
<path d="M36.3026 19.9237H23.146L19.0798 32.4334L29.7243 40.1644L40.3687 32.4317L36.3026 19.9237Z" fill="#010101"/>
</svg>
