<svg width="61" height="60" viewBox="0 0 61 60" fill="none" xmlns="http://www.w3.org/2000/svg">
<path d="M34.6198 45.2729C34.2771 45.3696 33.9345 45.4594 33.5901 45.5442C33.4934 45.568 33.395 45.59 33.2983 45.6121C33.049 45.6714 32.8013 45.7291 32.5503 45.7833C32.4213 45.8105 32.2924 45.8359 32.1652 45.863C31.943 45.9088 31.7208 45.9512 31.4985 45.9919C31.3628 46.0173 31.2255 46.0411 31.0897 46.0631C30.8692 46.1004 30.647 46.136 30.4265 46.1683C30.2941 46.1886 30.1602 46.209 30.0278 46.2276C29.7887 46.2598 29.5495 46.2904 29.3086 46.3175C29.1949 46.3311 29.0796 46.3463 28.9659 46.3582C28.6131 46.3955 28.2586 46.4294 27.904 46.4565C27.407 46.4938 26.9066 46.5176 26.4062 46.5346C26.2518 46.5396 26.0991 46.5396 25.9448 46.543C25.7158 46.5481 25.4851 46.5566 25.2561 46.5566C25.1305 46.5566 25.0033 46.5515 24.8778 46.5498C24.7183 46.5481 24.5572 46.5447 24.3977 46.5413C24.0313 46.5329 23.6649 46.5176 23.2985 46.4972C23.1645 46.4905 23.0305 46.4837 22.8982 46.4752C21.8956 46.4074 20.8982 46.2971 19.9092 46.1428C19.7905 46.1242 19.6735 46.1021 19.5547 46.0835C19.1815 46.0224 18.81 45.9546 18.4385 45.88C18.2876 45.8495 18.1366 45.8189 17.9856 45.7867C17.6345 45.7121 17.2833 45.6307 16.9356 45.5442C16.7948 45.5103 16.654 45.4764 16.5132 45.4408C16.0348 45.317 15.5599 45.1847 15.0883 45.0406C14.7355 44.9321 14.386 44.8167 14.0366 44.698C13.9297 44.6607 13.8228 44.6217 13.716 44.5844C13.4717 44.4979 13.2274 44.4098 12.9848 44.3182C12.8661 44.2741 12.7491 44.2283 12.632 44.1825C12.3877 44.0876 12.1452 43.9875 11.9026 43.8875C11.8025 43.8451 11.7007 43.8044 11.6006 43.762C11.2631 43.6178 10.9289 43.4686 10.5964 43.3143C10.571 43.3024 10.5455 43.2888 10.5201 43.277C10.2147 43.1328 9.9111 42.9836 9.60915 42.831C9.50568 42.7784 9.40391 42.7242 9.30043 42.6716C9.07312 42.5529 8.84751 42.4342 8.6236 42.3104C8.51334 42.2493 8.40476 42.19 8.2945 42.1289C8.0638 41.9984 7.83311 41.8661 7.6058 41.7304C7.5159 41.6779 7.42598 41.6253 7.33777 41.5727C7.02564 41.3828 6.71522 41.1895 6.40819 40.9911C6.36578 40.964 6.32507 40.9351 6.28266 40.908C6.01803 40.735 5.7568 40.557 5.49556 40.3772C5.39887 40.3094 5.30388 40.2416 5.20719 40.1737C4.99855 40.0262 4.79329 39.8753 4.58803 39.7243C4.48795 39.6497 4.38786 39.5751 4.28948 39.4988C4.07404 39.3343 3.862 39.1681 3.64996 38.9986C3.57193 38.9375 3.4939 38.8765 3.41756 38.8137C3.13428 38.5831 2.85269 38.3474 2.57619 38.1083C2.52361 38.0625 2.47271 38.015 2.42012 37.9692C2.24201 37.8132 2.06559 37.6572 1.89087 37.4978C4.66945 48.5678 13.5718 57.1331 25.022 59.3495C26.8896 59.7107 28.8014 59.8938 30.7047 59.8938C31.3662 59.8938 32.0532 59.8701 32.7487 59.8226C33.3068 59.7853 33.8649 59.731 34.4162 59.6632C34.4501 59.5631 34.4858 59.4631 34.518 59.3613C34.5757 59.185 34.63 59.0086 34.6843 58.8323C34.7521 58.6101 34.8165 58.3863 34.8793 58.1607C34.9285 57.9827 34.9777 57.8029 35.0252 57.6232C35.0829 57.3976 35.1372 57.1721 35.1915 56.9449C35.2339 56.7651 35.2763 56.5854 35.3136 56.4039C35.3628 56.175 35.4069 55.9444 35.451 55.7137C35.4849 55.534 35.5205 55.3542 35.5511 55.1745C35.5918 54.9388 35.6257 54.7014 35.6596 54.464C35.6851 54.2876 35.7122 54.1129 35.7343 53.9366C35.7665 53.6873 35.7902 53.4363 35.8157 53.187C35.8327 53.0209 35.8513 52.8564 35.8666 52.6902C35.8903 52.4121 35.9056 52.1306 35.9209 51.8508C35.9294 51.7117 35.9395 51.5744 35.9463 51.4353C35.9633 51.0165 35.9734 50.5959 35.9734 50.1737C35.9734 49.787 35.9633 49.4021 35.948 49.0155C35.9446 48.9324 35.9412 48.8476 35.9378 48.7645C35.9209 48.388 35.8954 48.0133 35.8649 47.6368C35.8598 47.5741 35.853 47.5113 35.8462 47.4503C35.8157 47.1077 35.7784 46.7669 35.7343 46.426C35.7258 46.3599 35.719 46.2938 35.7105 46.2276C35.6613 45.8529 35.6037 45.4798 35.5392 45.1084C35.5341 45.0762 35.5273 45.044 35.5222 45.0117C35.2864 45.0847 35.049 45.1525 34.8132 45.2203C34.7487 45.239 34.6859 45.2593 34.6215 45.2763L34.6198 45.2729Z" fill="#010101"/>
<path d="M42.9589 19.9042C43.2099 20.162 43.4576 20.4231 43.7018 20.6877C43.729 20.7165 43.7544 20.747 43.7799 20.7759C43.9936 21.0116 44.2056 21.249 44.4126 21.4898C44.4889 21.578 44.5636 21.6695 44.6399 21.7594C44.796 21.9442 44.9503 22.1308 45.103 22.3173C45.1861 22.4208 45.2692 22.5242 45.3507 22.6276C45.4949 22.8091 45.6357 22.9922 45.7764 23.1771C45.8562 23.2822 45.9359 23.3873 46.014 23.4925C46.1598 23.6892 46.304 23.8893 46.4448 24.0894C46.5109 24.1827 46.5788 24.2759 46.6433 24.3692C46.8468 24.6626 47.047 24.9593 47.2421 25.2595C48.9876 27.9456 50.3463 30.8555 51.2844 33.9045C52.2954 37.1926 52.8077 40.618 52.8077 44.0842C52.8077 44.4861 52.7975 44.888 52.784 45.2899C52.7806 45.373 52.7789 45.4578 52.7755 45.5409C52.7585 45.9326 52.7365 46.3226 52.7077 46.7109C52.7026 46.7771 52.6958 46.8415 52.6907 46.9076C52.6618 47.2688 52.6262 47.63 52.5855 47.9895C52.5787 48.0472 52.5736 48.1049 52.5668 48.1625C52.521 48.5525 52.4668 48.9409 52.4091 49.3275C52.3972 49.4089 52.3837 49.4886 52.3718 49.57C52.3107 49.9566 52.2445 50.3433 52.1699 50.7265C57.4522 45.2237 60.4191 37.9252 60.4191 30.1823C60.4191 25.5427 59.3776 21.0964 57.3233 16.9689C56.9061 16.1312 56.4446 15.3053 55.9493 14.5083C55.8798 14.5151 55.8102 14.5185 55.7424 14.5253C55.6202 14.5371 55.4998 14.5507 55.3777 14.5643C55.1673 14.588 54.9587 14.6134 54.75 14.6406C54.6262 14.6575 54.504 14.6745 54.3802 14.6914C54.1699 14.722 53.9612 14.7559 53.7509 14.7898C53.6338 14.8101 53.5168 14.8288 53.3997 14.8492C53.1758 14.8898 52.9519 14.9339 52.7297 14.9797C52.6296 15.0001 52.5312 15.0187 52.4311 15.0408C52.1343 15.1035 51.8408 15.173 51.5457 15.2443C51.5219 15.251 51.4965 15.2544 51.4727 15.2612C51.1504 15.3409 50.8315 15.4274 50.5126 15.519C50.4329 15.541 50.3531 15.5665 50.2734 15.5902C50.0393 15.6597 49.8052 15.7293 49.5728 15.8039C49.4643 15.8395 49.3557 15.8768 49.2471 15.9124C49.0436 15.9802 48.8417 16.0498 48.6399 16.121C48.5228 16.1634 48.4058 16.2058 48.2904 16.2499C48.097 16.3211 47.9053 16.3957 47.7153 16.472C47.5983 16.5195 47.4813 16.5653 47.3642 16.6144C47.1725 16.6941 46.9808 16.7755 46.7908 16.8586C46.6789 16.9078 46.5669 16.9553 46.4567 17.0062C46.2531 17.0977 46.0529 17.1927 45.8511 17.2894C45.7561 17.3351 45.6594 17.3792 45.5644 17.4267C45.2896 17.5624 45.0148 17.7014 44.7451 17.8473C44.7264 17.8574 44.7078 17.8659 44.6908 17.8761C44.4024 18.0304 44.1174 18.1898 43.8325 18.3543C43.7392 18.4086 43.6459 18.4662 43.5526 18.5205C43.3643 18.6324 43.176 18.7443 42.9894 18.8613C42.8774 18.9309 42.7655 19.0038 42.6552 19.075C42.5484 19.1445 42.4415 19.2141 42.3346 19.2836C42.472 19.4175 42.606 19.5549 42.7417 19.6906C42.813 19.7618 42.8859 19.833 42.9555 19.9042H42.9589Z" fill="#010101"/>
<path d="M15.3919 24.9627C15.419 24.8881 15.4462 24.8135 15.4733 24.7389C15.5972 24.3963 15.7261 24.0555 15.8601 23.7163C15.8821 23.6621 15.9008 23.6095 15.9229 23.5552C16.0721 23.1838 16.2299 22.8142 16.3927 22.4479C16.4284 22.3665 16.4657 22.2851 16.503 22.2054C16.6726 21.834 16.8457 21.4626 17.0272 21.098C19.0034 17.1249 21.6904 13.6078 25.0152 10.6453C25.3477 10.3486 25.6852 10.062 26.0262 9.78049C26.1347 9.69062 26.2433 9.60583 26.3519 9.51765C26.5893 9.32603 26.8286 9.1361 27.0711 8.95126C27.1967 8.85461 27.3239 8.75964 27.4511 8.66468C27.6869 8.49002 27.9244 8.31874 28.1635 8.14917C28.2874 8.06099 28.4112 7.97281 28.5367 7.88802C28.8098 7.69979 29.088 7.51834 29.3662 7.33859C29.4561 7.28093 29.5444 7.22158 29.6326 7.16393C30.0007 6.9316 30.3739 6.70607 30.7505 6.48731C30.8336 6.43983 30.9184 6.39405 31.0015 6.34657C31.2967 6.17868 31.5935 6.01419 31.8938 5.85649C32.0244 5.78696 32.155 5.72083 32.2856 5.65469C32.5451 5.52073 32.8081 5.39015 33.071 5.26467C33.2101 5.19853 33.3492 5.1307 33.49 5.06626C33.7614 4.94077 34.0362 4.81868 34.3111 4.69997C34.4366 4.64571 34.5621 4.58975 34.6876 4.53718C35.0642 4.37947 35.4425 4.22855 35.8225 4.08611C35.8462 4.07763 35.8699 4.06745 35.8954 4.05728C36.3008 3.90636 36.7113 3.76391 37.1218 3.62655C37.2474 3.58586 37.3746 3.54685 37.5001 3.50615C37.7902 3.41458 38.0803 3.32471 38.372 3.23992C38.523 3.19583 38.674 3.15513 38.825 3.11274C39.1015 3.03643 39.3796 2.9652 39.6595 2.89568C39.8105 2.85837 39.9615 2.82106 40.1125 2.78545C40.4212 2.71423 40.7333 2.6481 41.0455 2.58366C41.1625 2.55992 41.2795 2.53278 41.3983 2.51074C41.4271 2.50565 41.4559 2.49887 41.4831 2.49378C38.0633 1.1643 34.3976 0.474121 30.7013 0.474121C20.542 0.474121 11.1901 5.58177 5.68723 14.1352C5.22244 14.8576 4.78309 15.6122 4.37598 16.3872C4.38785 16.4059 4.39972 16.4245 4.41159 16.4432C4.62533 16.7671 4.84755 17.0876 5.07316 17.4047C5.12236 17.4742 5.17325 17.542 5.22414 17.6115C5.45993 17.9337 5.69911 18.2542 5.94678 18.5646C6.23006 18.9224 6.52521 19.2717 6.82546 19.6159C6.86448 19.66 6.9018 19.7058 6.94082 19.7499C7.2275 20.0755 7.52265 20.3926 7.8246 20.7046C7.87888 20.7606 7.93318 20.8166 7.98746 20.8725C8.28771 21.1777 8.59304 21.4779 8.90686 21.7713C8.96114 21.8221 9.01711 21.873 9.07309 21.9239C9.39539 22.2206 9.7211 22.5123 10.0553 22.7938C10.0926 22.826 10.1299 22.8549 10.1672 22.8871C10.5048 23.1703 10.8492 23.4467 11.1986 23.7146C11.2206 23.7316 11.2427 23.7502 11.2665 23.7672C11.621 24.0368 11.9823 24.2963 12.3487 24.5506C12.4047 24.5896 12.4624 24.6303 12.5183 24.6693C12.8729 24.9118 13.2342 25.1458 13.5989 25.3714C13.6651 25.4121 13.7329 25.4545 13.7991 25.4952C14.1655 25.719 14.537 25.9361 14.9136 26.143C14.9356 26.1548 14.9594 26.1667 14.9814 26.1803C14.9899 26.1514 15.0018 26.1226 15.0102 26.0921C15.129 25.7139 15.2545 25.3375 15.3868 24.9627H15.3919Z" fill="#010101"/>
<path d="M49.0182 34.6014C48.1463 31.7627 46.8791 29.0529 45.254 26.5516C45.0691 26.2667 44.8791 25.9852 44.6841 25.7054C44.6196 25.6121 44.5518 25.5223 44.4873 25.429C44.355 25.2442 44.2226 25.0593 44.0886 24.8762C44.0089 24.7693 43.9275 24.6625 43.8461 24.5574C43.7205 24.3929 43.595 24.2284 43.4661 24.0673C43.3779 23.9571 43.2897 23.8469 43.1998 23.7366C43.0742 23.5823 42.9453 23.428 42.8164 23.2754C42.7231 23.1652 42.6298 23.0566 42.5348 22.9464C42.4042 22.7955 42.2719 22.6479 42.1379 22.4987C42.0429 22.3919 41.9462 22.2867 41.8495 22.1816C41.7104 22.0307 41.5679 21.8832 41.4254 21.7339C41.3321 21.6356 41.2388 21.5389 41.1438 21.4423C40.9826 21.2795 40.8198 21.1201 40.6553 20.9607C40.5756 20.8826 40.4958 20.8029 40.4144 20.7249C40.4008 20.7131 40.389 20.7012 40.3754 20.6893C40.1464 20.8691 39.9208 21.0505 39.6969 21.2371C39.6494 21.2778 39.6019 21.3185 39.5544 21.3592C39.3763 21.5101 39.1981 21.661 39.0234 21.817C38.9471 21.8848 38.8707 21.9544 38.7944 22.0239C38.6502 22.1545 38.5077 22.2834 38.3652 22.4156C38.2804 22.4953 38.1973 22.575 38.1142 22.6564C37.9836 22.7819 37.8546 22.9074 37.7274 23.0329C37.6409 23.1194 37.5544 23.2059 37.4696 23.294C37.3474 23.4178 37.227 23.5433 37.1066 23.6705C37.0201 23.7604 36.9352 23.8519 36.8504 23.9435C36.7334 24.0707 36.618 24.1979 36.5027 24.3284C36.4196 24.4217 36.3364 24.515 36.255 24.6083C36.1414 24.7405 36.0277 24.8728 35.9158 25.0068C35.8377 25.1 35.758 25.195 35.6799 25.2899C35.5646 25.4307 35.4526 25.5731 35.3407 25.7156C35.2694 25.8055 35.1982 25.8936 35.1286 25.9852C34.9997 26.1514 34.8759 26.321 34.7504 26.4889C34.6995 26.5584 34.6469 26.6262 34.596 26.6957C34.4247 26.9315 34.2584 27.1706 34.0939 27.4114C34.0396 27.4911 33.987 27.5725 33.9344 27.6538C33.8242 27.8183 33.7139 27.9845 33.6087 28.1507C33.5426 28.2542 33.4781 28.361 33.4137 28.4644C33.3238 28.6103 33.2322 28.7561 33.1456 28.9036C33.0778 29.0172 33.0116 29.1326 32.9455 29.2462C32.8725 29.3734 32.7979 29.5005 32.7267 29.6294C32.7182 29.643 32.7114 29.6566 32.7029 29.6718C32.6367 29.7905 32.5723 29.9092 32.5078 30.0296C32.4315 30.1704 32.3568 30.3111 32.2839 30.4536C32.2211 30.5757 32.1584 30.6978 32.0973 30.8215C32.0651 30.886 32.0345 30.9504 32.0023 31.0149C32.0176 31.0352 32.0329 31.0556 32.0481 31.0776C32.1194 31.1743 32.1889 31.2726 32.2602 31.3693C32.3602 31.5066 32.4586 31.644 32.557 31.783C32.6283 31.8848 32.6961 31.9865 32.7657 32.0883C32.7843 32.1154 32.803 32.1425 32.8217 32.1697C32.8963 32.2799 32.9709 32.3901 33.0455 32.502C33.1151 32.6072 33.183 32.714 33.2508 32.8192C33.339 32.9565 33.4272 33.0956 33.5137 33.2346C33.5816 33.3432 33.6478 33.4534 33.7139 33.5619C33.797 33.701 33.8819 33.84 33.9633 33.9791C34.0277 34.091 34.0922 34.2029 34.1566 34.3148C34.2364 34.4556 34.3161 34.5963 34.3925 34.7371C34.4552 34.8507 34.5163 34.9643 34.5773 35.0779C34.6537 35.2204 34.7283 35.3628 34.8013 35.5053C34.8606 35.6206 34.92 35.7359 34.9777 35.8529C35.0489 35.9953 35.1185 36.1395 35.188 36.2836C35.244 36.4023 35.3017 36.5193 35.356 36.638C35.4238 36.7822 35.4883 36.928 35.5544 37.0738C35.6087 37.1925 35.6613 37.3129 35.7139 37.4316C35.7766 37.5792 35.8394 37.725 35.9005 37.8725C35.9497 37.9929 36.0006 38.1133 36.0498 38.2337C36.1091 38.383 36.1668 38.5322 36.2245 38.6831C36.2703 38.8035 36.3178 38.9239 36.3619 39.046C36.4178 39.1986 36.4721 39.3513 36.5264 39.5039C36.5688 39.6243 36.6112 39.743 36.6536 39.8634C36.7079 40.0211 36.7571 40.1788 36.8097 40.3365C36.847 40.4535 36.886 40.5705 36.9234 40.6875C36.9743 40.8537 37.0234 41.0199 37.0709 41.1861C37.1032 41.2963 37.1371 41.4082 37.1693 41.5184C37.2049 41.6439 37.2372 41.7711 37.2711 41.8966L37.3016 41.8864L37.5917 43.1973L37.819 44.2215L37.8003 44.2283C38.1668 46.1818 38.3534 48.1743 38.3534 50.1669C38.3534 50.601 38.3432 51.0317 38.3262 51.4641C38.3211 51.6015 38.3109 51.7371 38.3042 51.8745C38.2889 52.1713 38.2703 52.4697 38.2465 52.7648C38.2346 52.9191 38.2194 53.0751 38.2058 53.2294C38.1787 53.5143 38.1481 53.8009 38.1125 54.0841C38.0938 54.2316 38.0769 54.3808 38.0565 54.5284C38.0124 54.854 37.9615 55.1795 37.9072 55.5034C37.8903 55.6035 37.8767 55.7035 37.8597 55.8019C37.7851 56.2241 37.702 56.6447 37.6104 57.0618C37.5883 57.1602 37.5629 57.2586 37.5408 57.3569C37.4679 57.6774 37.3899 57.9962 37.3067 58.3133C37.2694 58.4575 37.2287 58.5999 37.1897 58.7441C37.1473 58.8967 37.1083 59.051 37.0642 59.2036C41.4034 58.2574 45.4949 56.3361 49.0148 53.5821C49.0623 53.4261 49.1098 53.2684 49.1556 53.1107C49.2082 52.9327 49.2607 52.7546 49.3099 52.5765C49.3693 52.3595 49.4236 52.1407 49.4779 51.922C49.522 51.7439 49.5695 51.5659 49.6102 51.3878C49.6611 51.1657 49.7069 50.9418 49.7544 50.7197C49.7917 50.5433 49.8307 50.367 49.8646 50.1889C49.9087 49.9617 49.9461 49.7327 49.9851 49.5055C50.0156 49.3308 50.0478 49.1562 50.0733 48.9798C50.1089 48.7458 50.1378 48.5101 50.1683 48.2744C50.1903 48.1048 50.2158 47.9335 50.2344 47.764C50.2633 47.5164 50.2836 47.2671 50.3057 47.0195C50.3209 46.8601 50.3379 46.7007 50.3498 46.5413C50.3701 46.2649 50.3837 45.9868 50.3973 45.7087C50.4041 45.5764 50.4142 45.4441 50.4193 45.3119C50.4346 44.9015 50.4431 44.4894 50.4431 44.0774C50.4431 40.8486 49.9664 37.6572 49.025 34.5963L49.0182 34.6014Z" fill="#010101"/>
<path d="M34.9828 42.5631C34.8691 42.1358 34.7487 41.7118 34.6163 41.2896C34.6079 41.2642 34.5994 41.2404 34.5926 41.215C34.4603 40.7944 34.3161 40.3773 34.1634 39.9635C34.1499 39.9245 34.1363 39.8855 34.121 39.8465C33.9684 39.4378 33.8055 39.0325 33.6359 38.6306C33.6087 38.5662 33.5816 38.5018 33.5544 38.4373C33.3848 38.0456 33.2084 37.6573 33.0218 37.2723C32.9896 37.2062 32.9573 37.1418 32.9268 37.0773C32.7351 36.689 32.5383 36.304 32.3297 35.9242C32.3043 35.8784 32.2771 35.8326 32.2517 35.7868C32.0312 35.39 31.8038 34.9966 31.5664 34.6083C31.5664 34.6083 31.5664 34.6083 31.5664 34.6066C31.3492 34.2556 31.1219 33.9096 30.8912 33.5688C30.8692 33.5349 30.8488 33.5009 30.8268 33.4687C30.7945 33.4212 30.764 33.3755 30.7318 33.328C30.4875 32.9736 30.2348 32.6242 29.9752 32.2817C29.96 32.2613 29.943 32.2393 29.9277 32.2189L29.9023 32.1867C29.9023 32.1867 29.8955 32.1867 29.8921 32.1867C29.8039 32.1884 29.7174 32.1901 29.6326 32.1918C29.6054 32.1918 29.5783 32.1918 29.5528 32.1918C29.446 32.1918 29.3425 32.1935 29.239 32.1935C28.9472 32.1935 28.6572 32.1884 28.3671 32.1816C24.2433 32.0731 20.2655 31.1947 16.5115 29.5668L16.503 29.6007L15.2053 28.9682L14.3266 28.5408L14.3317 28.5256C10.3911 26.4533 6.86616 23.5349 4.09097 20.0416C3.82125 19.7025 3.56004 19.3532 3.30219 19.0004C3.27336 18.9614 3.24282 18.9241 3.21398 18.8834C3.05792 19.2633 2.90865 19.6431 2.77124 20.0247C1.5889 23.2755 0.988403 26.6924 0.988403 30.1823C0.988403 31.2354 1.04608 32.3037 1.15973 33.367C1.25134 33.4704 1.34294 33.5722 1.43624 33.6739C1.55328 33.8028 1.67202 33.9317 1.79076 34.0588C1.92816 34.2047 2.06725 34.3471 2.20635 34.4896C2.32679 34.6134 2.44724 34.7372 2.57107 34.8593C2.71356 35 2.85775 35.1374 3.00194 35.2764C3.12577 35.3951 3.25129 35.5155 3.37682 35.6325C3.52271 35.7682 3.67198 35.9005 3.82126 36.0327C3.95018 36.1463 4.07741 36.2617 4.20803 36.3753C4.359 36.5058 4.51336 36.633 4.66603 36.7602C4.79834 36.8687 4.92897 36.979 5.06128 37.0875C5.21735 37.213 5.37679 37.3351 5.53454 37.4572C5.66855 37.5606 5.80256 37.6657 5.93827 37.7675C6.09942 37.8879 6.26227 38.0049 6.42512 38.1219C6.56252 38.2203 6.69823 38.3203 6.83733 38.4187C7.00187 38.534 7.1698 38.6442 7.33604 38.7561C7.47684 38.8494 7.61593 38.9461 7.75673 39.0376C7.92636 39.1478 8.09769 39.253 8.26902 39.3581C8.41151 39.4463 8.55231 39.5362 8.6965 39.6227C8.87122 39.7278 9.04933 39.8279 9.22575 39.9296C9.36994 40.0127 9.51074 40.0958 9.65662 40.1755C9.83813 40.2755 10.0213 40.3705 10.2028 40.4672C10.347 40.5435 10.4895 40.6215 10.6354 40.6961C10.8237 40.791 11.0137 40.8826 11.202 40.9742C11.3445 41.0437 11.487 41.1149 11.6312 41.1828C11.8262 41.2743 12.0264 41.3608 12.2232 41.4473C12.364 41.5101 12.5031 41.5745 12.6455 41.6338C12.8559 41.7237 13.0696 41.8068 13.2817 41.8916C13.414 41.9442 13.5429 42.0001 13.6752 42.051C13.911 42.1409 14.1502 42.2257 14.3877 42.3122C14.4996 42.3528 14.6099 42.3952 14.7219 42.4342C15.073 42.5546 15.4275 42.6717 15.7821 42.7802C19.6174 43.9553 23.67 44.4064 27.7191 44.1012C28.0533 44.0758 28.3858 44.0452 28.7182 44.0096C28.8285 43.9977 28.9387 43.9825 29.0473 43.9706C29.2695 43.9452 29.4918 43.918 29.714 43.8875C29.8446 43.8689 29.9735 43.8485 30.1024 43.8299C30.3043 43.7993 30.5062 43.7671 30.708 43.7332C30.8438 43.7095 30.9794 43.6857 31.1151 43.6603C31.3119 43.6247 31.507 43.5857 31.7021 43.5467C31.8378 43.5195 31.9718 43.4907 32.1075 43.4619C32.306 43.4195 32.5044 43.3737 32.7029 43.3262C32.8318 43.2957 32.959 43.2669 33.088 43.2346C33.3051 43.1804 33.5205 43.1227 33.736 43.0634C33.8428 43.0345 33.9497 43.0074 34.0566 42.9769C34.3772 42.887 34.6944 42.7921 35.0116 42.6903C35.0014 42.6513 34.9913 42.614 34.9811 42.575L34.9828 42.5631Z" fill="#010101"/>
<path d="M45.4118 4.36252C45.2371 4.37609 45.0641 4.39305 44.8893 4.41C44.679 4.43035 44.4687 4.44901 44.26 4.47275C44.031 4.49988 43.802 4.5321 43.5747 4.56262C43.366 4.59145 43.1574 4.61858 42.9488 4.6508C42.7232 4.68641 42.4992 4.72711 42.2736 4.76781C42.065 4.80512 41.858 4.84073 41.651 4.88143C41.4288 4.92552 41.2083 4.97639 40.9878 5.02387C40.7808 5.06966 40.5739 5.11375 40.3687 5.16293C40.1498 5.21549 39.9327 5.27485 39.7156 5.3325C39.512 5.38677 39.3068 5.43764 39.1049 5.49699C38.8895 5.55804 38.6774 5.62587 38.4637 5.692C38.2618 5.75475 38.0583 5.8141 37.8581 5.88193C37.646 5.95146 37.4357 6.02946 37.2254 6.10408C37.0269 6.1753 36.8284 6.24313 36.6299 6.31605C36.4196 6.39575 36.2127 6.48054 36.004 6.56533C35.8089 6.64333 35.6138 6.71964 35.4221 6.80104C35.2152 6.88922 35.0117 6.98418 34.8064 7.07575C34.6164 7.16224 34.4247 7.24533 34.2364 7.33351C34.0312 7.43017 33.8293 7.5353 33.6275 7.63705C33.4426 7.73032 33.256 7.82019 33.0711 7.91685C32.8675 8.02368 32.669 8.1373 32.4672 8.24922C32.2873 8.34927 32.1059 8.44593 31.9277 8.54768C31.7242 8.66638 31.524 8.79017 31.3238 8.91396C31.1525 9.0191 30.9795 9.11915 30.8098 9.22768C30.6029 9.35825 30.4011 9.49731 30.1958 9.63466C30.0363 9.7415 29.8735 9.84494 29.7157 9.95516C29.5037 10.1027 29.2967 10.257 29.0864 10.4096C28.9405 10.5165 28.7912 10.6199 28.647 10.7284C28.4163 10.9031 28.1907 11.0845 27.9651 11.266C27.8464 11.361 27.7242 11.4525 27.6055 11.5492C27.2628 11.8307 26.9253 12.119 26.5928 12.4157C26.206 12.76 25.8277 13.1144 25.4596 13.4756C22.8795 16.0023 20.7608 18.9156 19.151 22.1545C18.9661 22.5259 18.7914 22.9024 18.62 23.2805C18.5912 23.3433 18.5624 23.406 18.5352 23.4704C18.3741 23.835 18.2197 24.203 18.0721 24.5744C18.045 24.6422 18.0179 24.7117 17.9907 24.7813C17.8414 25.1628 17.6989 25.5444 17.5649 25.931C17.5565 25.9564 17.548 25.9819 17.5395 26.009C17.4106 26.3855 17.2884 26.7636 17.1731 27.1435C17.1612 27.1808 17.1493 27.2181 17.1392 27.2554C17.2613 27.3097 17.3851 27.3639 17.509 27.4165C17.6124 27.4606 17.7159 27.5081 17.8211 27.5504C18.0043 27.6268 18.1875 27.6997 18.3707 27.7726C18.4385 27.7997 18.5047 27.8269 18.5725 27.854C18.8236 27.9507 19.0747 28.0439 19.3257 28.1321C19.4038 28.1592 19.4835 28.1864 19.5632 28.2135C19.7396 28.2745 19.9161 28.3356 20.0925 28.3916C20.1909 28.4238 20.2892 28.4526 20.3876 28.4831C20.5471 28.5323 20.7065 28.5832 20.866 28.629C20.9712 28.6595 21.078 28.6883 21.1832 28.7188C21.3359 28.7612 21.4885 28.8053 21.6429 28.846C21.7532 28.8748 21.8634 28.902 21.9754 28.9308C22.1264 28.9681 22.2756 29.0054 22.4266 29.041C22.5403 29.0682 22.6539 29.0936 22.7676 29.1173C22.9169 29.1513 23.0661 29.1835 23.2171 29.214C23.3324 29.2377 23.4478 29.2598 23.5631 29.2818C23.7124 29.3107 23.8634 29.3378 24.0127 29.3649C24.128 29.3853 24.2451 29.4056 24.3621 29.4243C24.5131 29.4497 24.6641 29.4718 24.815 29.4955C24.9321 29.5125 25.0474 29.5294 25.1645 29.5464C25.3171 29.5667 25.4715 29.5854 25.6242 29.604C25.7395 29.6176 25.8549 29.6329 25.9702 29.6447C26.128 29.6617 26.284 29.6769 26.4418 29.6905C26.5538 29.7007 26.6674 29.7126 26.7794 29.721C26.9439 29.7346 27.1102 29.7448 27.2764 29.7549C27.3816 29.7617 27.4884 29.7702 27.5936 29.7753C27.7768 29.7855 27.96 29.7923 28.1432 29.7973C28.2128 29.799 28.2823 29.8041 28.3519 29.8058C28.3722 29.8058 28.3926 29.8075 28.4129 29.8075C28.686 29.8143 28.9608 29.8194 29.2356 29.8194C29.3391 29.8194 29.446 29.8194 29.5563 29.8177C29.58 29.8177 29.6038 29.8177 29.6275 29.8177C29.7208 29.8177 29.8141 29.8143 29.9125 29.8126C29.9227 29.8126 29.9329 29.8126 29.9413 29.8126C29.9634 29.7702 29.9854 29.7278 30.0075 29.6837C30.0736 29.5548 30.1398 29.426 30.2076 29.2971C30.2925 29.1343 30.3773 28.9715 30.4655 28.8104C30.513 28.7239 30.5605 28.6374 30.608 28.551C30.63 28.5103 30.6538 28.4713 30.6758 28.4322C30.7657 28.2712 30.8574 28.1101 30.9507 27.9507C31.0236 27.8269 31.0965 27.7048 31.1712 27.581C31.2662 27.4233 31.3629 27.2656 31.4595 27.1079C31.5359 26.9858 31.6139 26.8637 31.6919 26.7433C31.792 26.589 31.8921 26.4346 31.9939 26.282C32.0736 26.1616 32.155 26.0429 32.2381 25.9225C32.3416 25.7716 32.4468 25.6207 32.5537 25.4714C32.6385 25.3544 32.7216 25.2374 32.8081 25.1204C32.9167 24.9729 33.0269 24.827 33.1372 24.6812C33.2254 24.5659 33.3136 24.4506 33.4018 24.337C33.5155 24.1928 33.6291 24.0504 33.7445 23.9079C33.8361 23.796 33.9277 23.6824 34.0193 23.5722C34.1363 23.4314 34.2568 23.2924 34.3755 23.1533C34.4705 23.0431 34.5638 22.9346 34.6605 22.826C34.7826 22.6887 34.9065 22.553 35.0303 22.4174C35.1287 22.3105 35.2254 22.2037 35.3238 22.0986C35.451 21.9646 35.5799 21.8323 35.7072 21.7001C35.8072 21.5966 35.9073 21.4949 36.0074 21.3931C36.1397 21.2608 36.2737 21.132 36.4077 21.0014C36.5095 20.903 36.6096 20.8047 36.7131 20.708C36.8522 20.5775 36.993 20.4503 37.1338 20.3214C37.2355 20.2281 37.3373 20.1349 37.4408 20.0433C37.5884 19.9127 37.741 19.7838 37.892 19.655C37.9904 19.5702 38.0888 19.4854 38.1889 19.4023C38.3195 19.2938 38.4535 19.1869 38.5858 19.0801L38.557 19.0547L39.7393 18.1881L40.5145 17.62L40.5264 17.6302C40.5569 17.6099 40.5875 17.5878 40.618 17.5675C40.7164 17.5013 40.8148 17.4369 40.9132 17.3708C41.1133 17.2385 41.3118 17.1062 41.5154 16.9773C41.6341 16.9027 41.7545 16.8298 41.875 16.7552C42.0599 16.6416 42.2448 16.528 42.4314 16.4177C42.5603 16.3414 42.6892 16.2685 42.8181 16.1956C42.9996 16.0921 43.1812 15.9904 43.3644 15.8904C43.4984 15.8174 43.6307 15.7462 43.7647 15.675C43.9496 15.5783 44.1345 15.4834 44.3194 15.3901C44.4534 15.324 44.5857 15.2561 44.7214 15.1917C44.9148 15.0984 45.1082 15.0086 45.3032 14.9187C45.4322 14.8593 45.5611 14.7983 45.6917 14.7406C45.9071 14.6457 46.1243 14.5541 46.3431 14.4625C46.4534 14.4167 46.5619 14.3692 46.6722 14.3235C46.9979 14.1929 47.3253 14.0657 47.6544 13.9453C47.729 13.9182 47.8054 13.8927 47.8817 13.8656C48.1395 13.774 48.399 13.6825 48.6603 13.5977C48.7892 13.5553 48.9198 13.5163 49.0504 13.4756C49.2591 13.4094 49.4677 13.345 49.6781 13.284C49.8223 13.2416 49.9665 13.2026 50.1106 13.1636C50.3091 13.1093 50.5093 13.055 50.7095 13.0025C50.8587 12.9635 51.008 12.9278 51.159 12.8922C51.3574 12.8448 51.5559 12.799 51.7544 12.7549C51.9053 12.721 52.0564 12.6887 52.209 12.6582C52.4109 12.6175 52.6127 12.5785 52.8146 12.5412C52.9639 12.5141 53.1132 12.4853 53.2624 12.4598C53.4745 12.4242 53.6865 12.392 53.9003 12.3598C54.041 12.3394 54.1818 12.3157 54.3226 12.297C54.3549 12.2919 54.3871 12.2868 54.4193 12.2818C51.9868 9.06828 48.9063 6.35505 45.4067 4.35913L45.4118 4.36252Z" fill="#010101"/>
</svg>
