<svg width="56" height="68" viewBox="0 0 56 68" fill="none" xmlns="http://www.w3.org/2000/svg">
<path d="M30.859 42.1855C28.194 42.1855 25.792 41.4088 23.8684 39.8691C20.3655 37.0643 18.9898 32.1584 20.0958 26.4081C20.0975 26.3962 20.1009 26.3843 20.1026 26.3741L17.5174 37.729C16.5165 42.1227 14.4996 46.3045 11.6803 49.8215L1.55324 62.4618C1.00363 63.1469 0.754265 64.0049 0.850955 64.8783C0.947646 65.7516 1.37852 66.535 2.06383 67.0827C2.65246 67.5542 3.37 67.8051 4.11299 67.8051C4.23512 67.8051 4.35726 67.7984 4.4811 67.7848C5.3547 67.6881 6.13671 67.2574 6.68632 66.5723L16.8151 53.9321C19.6327 50.415 23.2747 47.5339 27.3459 45.5974L37.8665 40.5965C37.8546 40.6016 37.8444 40.6067 37.8326 40.6118C35.4119 41.6632 33.0472 42.1855 30.859 42.1855Z" fill="#010101"/>
<path d="M49.437 30.4593C56.9212 21.119 58.1001 9.59117 52.068 4.76162C50.2648 3.31683 48.0155 2.63342 45.5507 2.63342C39.773 2.63342 32.8028 6.39294 27.5561 12.9403C24.4535 16.8117 22.2924 21.3021 21.4697 25.5856C20.3806 31.2495 21.641 36.0078 24.9251 38.638C28.2092 41.2681 33.1285 41.458 38.421 39.1603C42.4227 37.4221 46.3344 34.3324 49.437 30.461V30.4593Z" fill="#010101"/>
<path d="M11.5971 0.815517C11.592 0.885044 11.5852 0.954568 11.5784 1.02579C11.5733 1.08853 11.5682 1.15127 11.5615 1.21402C11.5513 1.31746 11.536 1.41921 11.5224 1.52095C11.514 1.57522 11.5089 1.63118 11.5004 1.68545C11.4817 1.80585 11.4597 1.92455 11.4359 2.04495C11.4291 2.08056 11.4241 2.11617 11.4156 2.15178C11.3833 2.30779 11.3477 2.4621 11.3087 2.61472C11.3036 2.63168 11.2985 2.64864 11.2951 2.6656C11.2595 2.79956 11.2222 2.93353 11.1815 3.06411C11.1662 3.11159 11.1509 3.15738 11.1357 3.20316C11.1034 3.30491 11.0695 3.40495 11.0339 3.505C11.0135 3.55927 10.9932 3.61353 10.9728 3.6661C10.9389 3.75598 10.9033 3.84754 10.866 3.93572C10.8422 3.99168 10.8168 4.04765 10.793 4.10361C10.7557 4.1884 10.7184 4.27319 10.6777 4.35628C10.6505 4.41224 10.6234 4.4699 10.5946 4.52586C10.5538 4.60725 10.5131 4.68865 10.469 4.77005C10.4402 4.82601 10.4097 4.88027 10.3791 4.93623C10.335 5.01593 10.2892 5.09394 10.2434 5.17194C10.2112 5.22621 10.179 5.28048 10.1467 5.33304C10.0992 5.41105 10.05 5.48566 9.99915 5.56197C9.96522 5.61454 9.9313 5.66541 9.89567 5.71628C9.84309 5.79259 9.78879 5.8689 9.73451 5.94352C9.69889 5.991 9.66496 6.04017 9.62934 6.08765C9.56997 6.16566 9.50891 6.24198 9.44784 6.31828C9.41392 6.36068 9.38169 6.40307 9.34607 6.44377C9.27482 6.52856 9.20357 6.61165 9.12893 6.69304C9.10179 6.72357 9.07465 6.7558 9.04581 6.78632C8.84056 7.01186 8.62342 7.22722 8.3995 7.43241C8.36727 7.46123 8.33505 7.48837 8.30282 7.51719C8.2214 7.59011 8.13996 7.66133 8.05514 7.73085C8.01274 7.76646 7.96863 7.80039 7.92622 7.8343C7.85158 7.89535 7.77525 7.9547 7.69722 8.01405C7.64972 8.05136 7.59884 8.08528 7.55134 8.12089C7.4767 8.17515 7.40377 8.22772 7.32743 8.28029C7.27485 8.3159 7.22225 8.35151 7.16967 8.38543C7.09503 8.4346 7.0204 8.48378 6.94406 8.53126C6.88978 8.56518 6.83381 8.59739 6.77952 8.6313C6.70319 8.67709 6.62516 8.72119 6.54713 8.76528C6.49115 8.7975 6.43348 8.82802 6.3775 8.85854C6.29777 8.90094 6.21804 8.94163 6.13831 8.98063C6.08063 9.00946 6.02296 9.03829 5.96528 9.06542C5.88216 9.10442 5.79905 9.14174 5.71592 9.17904C5.65825 9.20448 5.60227 9.22992 5.54459 9.25366C5.45639 9.29097 5.36817 9.32488 5.27826 9.3588C5.22228 9.38084 5.168 9.40288 5.11202 9.42154C5.01533 9.45715 4.91695 9.48936 4.81856 9.52158C4.76937 9.53684 4.72187 9.5555 4.67268 9.57077C4.54546 9.60977 4.41483 9.64707 4.28591 9.68098C4.26556 9.68607 4.2452 9.69286 4.22315 9.69795C4.07048 9.73695 3.91612 9.77256 3.76175 9.80478C3.72444 9.81326 3.68711 9.81835 3.64809 9.82513C3.53105 9.84718 3.41401 9.86922 3.29526 9.88787C3.24098 9.89635 3.18501 9.90314 3.12903 9.90992C3.02725 9.92349 2.92546 9.93874 2.82198 9.94892C2.75922 9.9557 2.69816 9.9608 2.63539 9.96588C2.56584 9.97267 2.4946 9.97945 2.42505 9.98453C3.20027 12.8148 5.61923 14.9752 8.53352 15.4178C8.53691 15.394 8.54199 15.3703 8.54538 15.3465C8.57762 15.1074 8.61834 14.8717 8.66754 14.6394C8.67602 14.6004 8.68618 14.5631 8.69466 14.5241C8.74555 14.3003 8.80323 14.0781 8.86769 13.8594C8.87448 13.8356 8.88126 13.8119 8.88805 13.7898C8.9576 13.5626 9.03902 13.3388 9.12554 13.1183C9.1425 13.0725 9.16115 13.0267 9.17981 12.9826C9.26802 12.7673 9.36132 12.557 9.4631 12.3501C9.48176 12.3111 9.50211 12.2738 9.52247 12.2348C9.62595 12.0313 9.73452 11.8312 9.85157 11.6362C9.86005 11.6226 9.86684 11.6091 9.87532 11.5938C9.99745 11.392 10.1281 11.197 10.2638 11.0054C10.2909 10.9664 10.318 10.9274 10.3469 10.8884C10.4809 10.7035 10.6217 10.5255 10.7676 10.3508C10.7964 10.3152 10.8269 10.2813 10.8575 10.2474C11.0101 10.071 11.1679 9.89804 11.3325 9.73355L11.3511 9.7166C11.5157 9.55211 11.6887 9.39441 11.8651 9.24179C11.9007 9.21126 11.9347 9.18073 11.9703 9.15191C12.145 9.00607 12.3231 8.86532 12.508 8.73136C12.547 8.70253 12.586 8.6754 12.6251 8.64827C12.8167 8.51261 13.0118 8.38203 13.212 8.25993C13.2255 8.25145 13.2408 8.24298 13.2544 8.2345C13.4495 8.11749 13.6479 8.00896 13.8515 7.90552C13.8905 7.88517 13.9278 7.86483 13.9669 7.84617C14.1738 7.74443 14.3841 7.64946 14.5996 7.56297C14.6454 7.54432 14.6912 7.52736 14.737 7.50871C14.9575 7.42222 15.1814 7.34253 15.4087 7.27131C15.4325 7.26452 15.4562 7.25774 15.4783 7.25096C15.6971 7.18482 15.9193 7.12716 16.1432 7.07799C16.1823 7.06951 16.2196 7.05934 16.2586 7.05086C16.491 7.00168 16.7285 6.96098 16.9659 6.92876C16.9897 6.92537 17.0135 6.92028 17.0372 6.91689C16.5945 4.00356 14.4316 1.58539 11.6022 0.810425L11.5971 0.815517Z" fill="#010101"/>
<path d="M17.0016 9.32994C16.9813 9.33334 16.9626 9.33673 16.9423 9.34012C16.7709 9.37234 16.5996 9.40794 16.4317 9.45034C16.43 9.45034 16.4283 9.45034 16.4266 9.45034C16.2604 9.49273 16.0992 9.5436 15.9381 9.59787C15.9024 9.60974 15.8651 9.62161 15.8295 9.63518C15.6717 9.69114 15.5157 9.75049 15.363 9.81493C15.3393 9.82511 15.3155 9.83698 15.2935 9.84715C15.156 9.9082 15.022 9.97263 14.8897 10.0405C14.8592 10.0557 14.827 10.0727 14.7964 10.0879C14.6522 10.1643 14.5097 10.2474 14.3723 10.3321C14.3418 10.3508 14.313 10.3711 14.2824 10.3898C14.1586 10.4695 14.0365 10.5526 13.9177 10.6374C13.8974 10.6526 13.8753 10.6662 13.855 10.6815C13.7244 10.7781 13.5971 10.8816 13.4733 10.9867C13.4428 11.0121 13.4139 11.0393 13.3834 11.0647C13.2596 11.1715 13.1391 11.2818 13.0238 11.3988C13.0204 11.4022 13.0153 11.4073 13.0119 11.4106C12.8966 11.526 12.7863 11.6464 12.6777 11.7701C12.6523 11.8007 12.6251 11.8295 12.5997 11.86C12.4945 11.9838 12.391 12.111 12.2943 12.2433C12.2791 12.2636 12.2655 12.284 12.2503 12.3043C12.1637 12.423 12.0806 12.5451 12.0009 12.6706C11.9822 12.6994 11.9619 12.73 11.9432 12.7588C11.8567 12.8978 11.7753 13.0403 11.6989 13.1844C11.682 13.2149 11.6667 13.2455 11.6514 13.276C11.5836 13.4083 11.5191 13.5439 11.4581 13.6813C11.4479 13.705 11.436 13.7271 11.4275 13.7508C11.3614 13.9034 11.302 14.0594 11.246 14.2188C11.2341 14.2544 11.2223 14.2901 11.2087 14.3257C11.1544 14.4868 11.1052 14.6496 11.0611 14.8157C11.0611 14.8157 11.0611 14.8191 11.0611 14.8208C11.0187 14.9887 10.9831 15.1583 10.9509 15.3296C10.9475 15.3499 10.9441 15.3686 10.9407 15.3889C14.0229 14.8463 16.4588 12.4095 17.0033 9.32825L17.0016 9.32994Z" fill="#010101"/>
<path d="M2.16892 7.62404C2.16892 7.62404 2.1774 7.62404 2.18249 7.62404C2.4081 7.61216 2.63202 7.58843 2.85085 7.55621C2.86103 7.55621 2.87119 7.55451 2.87967 7.55282C3.09341 7.5206 3.30547 7.4782 3.51242 7.42733C3.53447 7.42224 3.55483 7.41715 3.57688 7.41206C3.77705 7.36119 3.97382 7.30354 4.1672 7.23741C4.19434 7.22893 4.21978 7.22045 4.24692 7.21028C4.43691 7.14414 4.62182 7.06952 4.80332 6.98812C4.83046 6.97625 4.8576 6.96269 4.88644 6.95082C5.06625 6.86773 5.24267 6.77785 5.41569 6.68119C5.44114 6.66762 5.46657 6.65237 5.49202 6.63711C5.66504 6.53706 5.83298 6.43192 5.99752 6.3183C6.01788 6.30474 6.03825 6.28947 6.05861 6.27591C6.22485 6.1589 6.38769 6.03511 6.54375 5.90623C6.55563 5.89606 6.5675 5.88587 6.57937 5.8757C6.90506 5.60099 7.20532 5.30083 7.48013 4.97525C7.49031 4.96338 7.50217 4.95151 7.51235 4.93794C7.64127 4.78193 7.76341 4.62083 7.88046 4.45634C7.89573 4.4343 7.91098 4.41395 7.92624 4.3919C8.0382 4.22911 8.14169 4.06293 8.24178 3.89166C8.25704 3.86453 8.27399 3.83739 8.28926 3.80856C8.38425 3.63898 8.47417 3.46432 8.55559 3.28627C8.56916 3.25574 8.58273 3.22521 8.5963 3.19469C8.67603 3.01494 8.74898 2.8335 8.81514 2.64696C8.82531 2.61644 8.83548 2.58761 8.84566 2.55709C8.91012 2.36716 8.9678 2.17384 9.01699 1.97713C9.02377 1.95169 9.02886 1.92626 9.03565 1.90082C9.08484 1.69733 9.12724 1.49045 9.15778 1.28017C9.15947 1.26491 9.16117 1.24965 9.16287 1.23438C9.1934 1.02241 9.21546 0.807052 9.22733 0.589994C9.22733 0.581515 9.22733 0.571345 9.22903 0.562866C5.42587 0.766358 2.36909 3.82212 2.16553 7.62404H2.16892Z" fill="#010101"/>
</svg>
