<svg width="61" height="60" viewBox="0 0 61 60" fill="none" xmlns="http://www.w3.org/2000/svg">
<path d="M27.2604 50.8091L58.7391 31.4282C59.8078 30.7703 60.505 29.6781 60.6509 28.4301C60.7968 27.1837 60.371 25.9594 59.4838 25.0725C57.9995 23.5887 55.6535 23.4683 54.025 24.7926L50.6324 27.5517L24.9211 48.469L27.2604 50.8074V50.8091Z" fill="#010101"/>
<path d="M23.0603 46.6104L49.506 25.0962L51.5145 23.4615C52.422 22.7238 52.953 21.6741 53.014 20.5074C53.0734 19.3407 52.651 18.2419 51.8249 17.416L51.5959 17.1871C50.8258 16.4172 49.8012 15.9933 48.7105 15.9933C47.6197 15.9933 46.5968 16.4172 45.8267 17.1871L19.7271 43.2782L23.0603 46.6104Z" fill="#010101"/>
<path d="M17.8782 41.4298L43.9779 15.3387C45.5673 13.7481 45.5673 11.1621 43.9779 9.57144L43.7302 9.32386C42.9058 8.49972 41.8099 8.08256 40.6462 8.13343C39.4826 8.19109 38.4326 8.71847 37.693 9.61892L14.4109 37.9637L17.8782 41.4298Z" fill="#010101"/>
<path d="M35.6708 7.96044C35.6708 7.96044 35.6725 7.95874 35.6742 7.95704L36.3426 7.14311C37.681 5.51348 37.5656 3.16144 36.0745 1.67256L36.0372 1.63522C35.1602 0.758505 33.9406 0.329499 32.7022 0.471943C31.4622 0.610996 30.3698 1.2978 29.7048 2.35256L10.041 33.5987L12.5499 36.1068L15.2589 32.8085L35.6691 7.96044H35.6708Z" fill="#010101"/>
<path d="M22.8806 50.1291L21.7101 48.959L21.0214 48.2705L17.8781 45.1283L16.0291 43.2799L12.7433 39.9952L12.3667 39.6187L10.8858 38.1366L8.38207 35.6337L4.40249 39.612C-0.238656 44.2516 -0.238656 51.8028 4.40249 56.4425C9.04534 61.0838 16.5974 61.0821 21.2385 56.4425L25.2181 52.4642L22.8823 50.1291H22.8806Z" fill="#010101"/>
</svg>
